<svg preserveAspectRatio="xMidYMid meet" viewBox="53.64 87.83999999999999 784.8 491.40000000000003" xmlns="http://www.w3.org/2000/svg" version="1.0" style="max-height: 500px" width="784.8" height="491.40000000000003">

<g stroke="none" fill="#000000" transform="translate(0.000000,900.000000) scale(0.100000,-0.100000)">
<path d="M3885 7523 c-789 -34 -1479 -533 -1721 -1246 -47 -140 -95 -441 -80&#10;-503 13 -50 33 -23 75 104 311 940 1304 1469 2256 1201 208 -59 425 -165 605&#10;-297 89 -66 250 -220 330 -317 226 -275 369 -639 401 -1020 11 -133 6 -335 -9&#10;-335 -4 1 -63 92 -131 203 -284 460 -432 666 -606 841 -258 261 -542 403 -889&#10;446 -535 68 -1098 -252 -1444 -820 -29 -46 -52 -90 -52 -97 0 -8 11 -19 25&#10;-25 22 -10 30 -8 58 13 183 136 249 168 379 184 176 22 392 -79 520 -243 170&#10;-217 257 -520 230 -800 -22 -220 -82 -443 -164 -608 -48 -98 -153 -233 -215&#10;-277 l-43 -30 -57 39 c-93 64 -214 186 -355 357 -245 299 -385 427 -553 507&#10;-130 62 -211 81 -367 87 -118 5 -151 2 -232 -16 -210 -49 -410 -184 -530 -359&#10;-41 -60 -27 -71 56 -43 177 59 330 26 472 -101 103 -91 159 -257 136 -400 -13&#10;-85 -60 -179 -118 -237 -59 -59 -91 -77 -185 -101 -66 -17 -70 -19 -42 -26 42&#10;-11 147 10 212 41 105 52 205 181 239 309 18 68 18 217 -1 291 -49 194 -171&#10;335 -332 385 -73 22 -53 30 93 37 84 4 130 1 189 -12 244 -54 380 -164 612&#10;-496 161 -230 234 -319 343 -422 197 -186 395 -289 670 -349 93 -20 132 -22&#10;350 -22 228 0 254 1 370 26 505 109 925 394 1159 788 28 47 52 89 54 95 2 5&#10;49 -32 104 -82 369 -336 776 -527 1213 -573 266 -27 564 9 805 99 83 31 101&#10;41 103 60 2 13 0 27 -5 32 -4 4 -71 13 -148 19 -754 59 -1236 329 -1707 957&#10;l-84 112 33 100 c217 648 38 1392 -456 1904 -121 125 -217 205 -346 289 -356&#10;231 -792 349 -1220 331z m120 -1451 c208 -69 324 -142 471 -295 122 -126 214&#10;-248 391 -517 293 -445 392 -584 544 -765 l80 -96 -35 -48 c-62 -84 -230 -236&#10;-348 -315 -300 -199 -648 -306 -1003 -306 -152 0 -344 25 -435 56 -9 3 9 20&#10;50 46 97 60 173 130 240 220 211 279 261 620 155 1056 -92 378 -312 684 -586&#10;812 -70 32 -205 70 -253 70 -46 0 -19 14 107 55 156 51 249 65 402 60 111 -3&#10;143 -8 220 -33z"/>
<path d="M2572 2787 c-54 -20 -103 -67 -131 -126 -22 -48 -26 -69 -26 -151 0&#10;-78 4 -103 23 -141 30 -61 71 -98 131 -119 l50 -17 -35 -16 c-19 -10 -59 -17&#10;-89 -17 -34 0 -55 -4 -55 -11 0 -8 17 -10 53 -6 45 4 64 0 147 -36 77 -33 107&#10;-40 160 -41 75 -1 109 17 134 69 23 48 20 52 -14 20 -26 -25 -40 -30 -94 -33&#10;-67 -4 -259 25 -251 38 4 7 50 22 153 50 61 16 124 81 147 151 42 124 14 272&#10;-65 343 -59 53 -159 71 -238 43z m149 -20 c19 -12 48 -47 64 -77 28 -52 30&#10;-61 30 -170 0 -106 -2 -119 -29 -173 -33 -68 -72 -97 -132 -97 -84 0 -145 74&#10;-166 203 -36 219 100 403 233 314z"/>
<path d="M7030 2787 c-74 -26 -104 -128 -57 -198 12 -19 63 -61 112 -94 108&#10;-73 135 -113 116 -175 -13 -45 -47 -70 -95 -70 -74 0 -104 27 -137 123 l-18&#10;52 0 -94 c-1 -84 1 -93 13 -76 14 19 15 19 50 2 47 -22 137 -22 183 0 47 22&#10;73 67 73 123 0 65 -29 101 -145 178 -81 54 -102 74 -114 104 -38 103 89 170&#10;170 89 15 -15 33 -48 41 -72 l13 -44 5 75 c3 41 4 77 2 79 -1 3 -8 -4 -16 -14&#10;-13 -18 -15 -17 -58 3 -49 24 -86 27 -138 9z"/>
<path d="M1939 2548 c-64 -166 -102 -252 -120 -270 l-27 -28 76 1 c73 0 75 1&#10;42 12 -45 15 -50 47 -18 127 l23 60 96 0 97 0 27 -74 c31 -85 30 -107 -5 -117&#10;-14 -4 16 -7 70 -8 82 -1 92 1 70 12 -20 10 -42 59 -124 270 -55 141 -103 257&#10;-107 257 -3 0 -48 -109 -100 -242z m94 100 c8 -24 26 -73 40 -110 l26 -68 -88&#10;0 -88 0 41 110 c23 60 44 110 48 110 3 0 13 -19 21 -42z"/>
<path d="M3076 2776 l32 -14 3 -204 c4 -181 6 -207 24 -237 34 -57 67 -75 148&#10;-79 62 -3 77 -1 107 20 65 44 75 78 78 296 l4 193 31 20 32 19 -80 0 -80 0 35&#10;-18 35 -17 3 -188 c2 -169 0 -193 -17 -233 -15 -33 -29 -49 -55 -59 -43 -18&#10;-96 -19 -131 -3 -51 23 -59 56 -63 261 -2 103 -1 198 2 211 3 12 18 27 33 33&#10;23 9 11 11 -72 12 -93 0 -98 -1 -69 -13z"/>
<path d="M3832 2713 c-143 -371 -164 -420 -188 -440 l-25 -23 73 1 c40 1 64 4&#10;53 6 -51 13 -57 49 -24 137 l22 56 96 0 96 0 28 -75 c32 -86 32 -106 -3 -116&#10;-15 -4 11 -7 62 -8 l87 -1 -22 23 c-12 12 -64 132 -117 269 -52 137 -98 248&#10;-102 248 -3 0 -20 -35 -36 -77z m54 -133 l42 -110 -89 0 -88 0 26 68 c14 37&#10;32 86 41 110 9 23 19 42 22 42 3 0 24 -49 46 -110z"/>
<path d="M4481 2767 c21 -17 44 -75 109 -267 45 -135 85 -248 89 -252 4 -4 33&#10;80 66 187 32 107 62 195 65 195 3 0 34 -85 68 -190 35 -104 67 -192 71 -194 4&#10;-3 40 104 81 237 59 194 80 248 102 270 15 16 28 30 28 33 0 2 -33 4 -72 4&#10;-72 -1 -72 -1 -40 -15 27 -12 32 -19 32 -49 0 -29 -91 -340 -103 -352 -3 -4&#10;-90 255 -122 364 -5 19 -1 25 27 37 32 14 31 14 -54 15 l-87 0 24 -35 c41 -61&#10;40 -82 -6 -232 -23 -76 -45 -141 -49 -145 -3 -5 -34 79 -69 184 l-63 192 22&#10;18 c22 18 20 18 -61 18 l-84 0 26 -23z"/>
<path d="M5441 2768 c-5 -13 -46 -117 -91 -232 -94 -242 -95 -245 -124 -268&#10;-20 -17 -19 -18 54 -16 41 0 65 3 54 5 -12 2 -30 13 -39 23 -17 19 -17 23 7&#10;92 l24 73 99 0 99 0 29 -75 c31 -81 28 -99 -14 -111 -13 -4 18 -7 69 -8 l93&#10;-1 -25 23 c-16 15 -52 93 -107 237 -120 314 -112 298 -128 258z m33 -188 c20&#10;-52 36 -98 36 -102 0 -5 -39 -8 -86 -8 -78 0 -85 2 -79 18 3 9 23 59 42 110&#10;20 51 39 89 44 85 4 -4 24 -51 43 -103z"/>
<path d="M5767 2772 c23 -17 34 -44 158 -361 48 -122 70 -169 76 -159 5 9 49&#10;121 99 249 62 161 98 241 115 256 14 12 25 25 25 28 0 3 -33 5 -72 4 -71 -1&#10;-72 -1 -42 -14 43 -19 47 -37 25 -103 -36 -106 -123 -322 -129 -322 -7 0 -153&#10;387 -152 403 0 4 15 14 33 22 30 14 28 14 -63 14 -92 1 -94 0 -73 -17z"/>
<path d="M6398 2770 l32 -20 0 -228 c0 -239 -3 -255 -45 -265 -11 -3 69 -5&#10;178 -6 l197 -1 0 76 c0 47 -4 73 -10 69 -5 -3 -10 -14 -10 -24 0 -38 -23 -82&#10;-51 -96 -34 -18 -160 -20 -177 -3 -8 8 -12 50 -12 125 l0 113 44 0 c51 0 76&#10;-24 76 -72 0 -16 4 -28 8 -28 5 0 8 49 8 110 -1 111 -9 140 -19 74 -9 -51 -23&#10;-64 -73 -64 l-44 0 0 115 0 115 28 11 c35 14 151 4 170 -14 7 -8 19 -36 27&#10;-63 l13 -49 1 57 c1 31 4 63 7 72 5 14 -15 16 -187 16 l-194 0 33 -20z"/>
<path d="M3407 1844 c-14 -15 -6 -34 14 -34 14 0 19 5 17 17 -3 18 -20 27 -31&#10;17z"/>
<path d="M6007 1844 c-14 -15 -6 -34 14 -34 14 0 19 5 17 17 -3 18 -20 27 -31&#10;17z"/>
<path d="M3870 1690 c0 -127 2 -150 15 -150 13 0 15 23 15 150 0 127 -2 150&#10;-15 150 -13 0 -15 -23 -15 -150z"/>
<path d="M4793 1813 c-7 -3 -13 -16 -13 -29 0 -15 -6 -24 -15 -24 -8 0 -15 -7&#10;-15 -15 0 -8 7 -15 15 -15 12 0 15 -15 15 -75 0 -84 18 -115 65 -115 32 0 34&#10;27 3 32 -21 3 -23 9 -26 81 -3 77 -3 77 23 77 16 0 25 6 25 15 0 9 -9 15 -25&#10;15 -20 0 -25 5 -25 24 0 27 -8 36 -27 29z"/>
<path d="M2547 1742 c-20 -22 -22 -65 -4 -80 6 -5 23 -13 37 -16 56 -16 80&#10;-29 80 -45 0 -45 -58 -55 -88 -16 -21 27 -42 33 -42 13 1 -32 42 -58 93 -58&#10;52 0 84 48 58 88 -5 8 -33 22 -62 31 -56 19 -71 39 -49 66 18 22 48 18 74 -10&#10;24 -26 46 -33 46 -15 0 6 -11 22 -25 35 -30 31 -93 34 -118 7z"/>
<path d="M2818 1731 c-28 -25 -32 -34 -32 -81 0 -47 4 -56 34 -82 29 -27 38&#10;-30 82 -26 67 7 90 31 96 102 4 51 2 57 -26 86 -43 42 -107 43 -154 1z m131&#10;-27 c43 -55 11 -134 -55 -134 -47 0 -74 29 -74 80 0 51 27 80 74 80 25 0 40&#10;-7 55 -26z"/>
<path d="M3141 1746 c-69 -38 -67 -162 4 -194 47 -21 94 -15 126 17 16 16 29&#10;34 29 40 0 19 -22 12 -46 -14 -30 -32 -83 -34 -110 -4 -24 26 -23 92 1 119 26&#10;29 80 26 109 -5 24 -26 46 -33 46 -14 0 6 -13 24 -29 40 -33 32 -87 39 -130&#10;15z"/>
<path d="M3400 1650 c0 -87 3 -110 14 -110 20 0 26 23 26 103 0 85 -7 117 -26&#10;117 -11 0 -14 -23 -14 -110z"/>
<path d="M3569 1731 c-25 -25 -29 -37 -29 -81 0 -44 4 -56 29 -81 36 -36 86&#10;-39 125 -8 l26 20 0 -20 c0 -14 6 -21 20 -21 19 0 20 7 20 110 0 103 -1 110&#10;-20 110 -14 0 -20 -7 -20 -21 l0 -20 -26 20 c-39 31 -89 28 -125 -8z m131 -21&#10;c13 -13 20 -33 20 -60 0 -50 -27 -80 -72 -80 -69 0 -105 87 -58 138 27 29 83&#10;29 110 2z"/>
<path d="M4198 1744 c-61 -33 -60 -157 2 -189 49 -26 97 -19 133 17 29 29 30&#10;33 13 36 -11 2 -23 -3 -28 -13 -15 -26 -57 -38 -89 -25 -22 9 -49 46 -49 65 0&#10;3 41 5 90 5 l90 0 0 31 c0 46 -47 89 -97 89 -21 -1 -50 -7 -65 -16z m115 -36&#10;c33 -39 23 -48 -58 -48 -41 0 -75 2 -75 5 0 2 5 15 11 29 22 48 86 56 122 14z"/>
<path d="M4460 1650 c0 -91 3 -110 15 -110 11 0 15 12 15 48 0 26 5 65 10 87&#10;6 25 5 42 -1 46 -5 3 -7 13 -3 22 4 13 1 17 -15 17 -20 0 -21 -5 -21 -110z"/>
<path d="M4524 1746 c-24 -18 -13 -31 14 -17 30 16 40 14 67 -14 22 -21 25&#10;-33 25 -100 0 -60 3 -75 15 -75 12 0 15 16 15 84 0 69 -4 88 -21 110 -24 30&#10;-81 36 -115 12z"/>
<path d="M5011 1746 c-66 -37 -67 -157 0 -191 49 -26 96 -19 132 17 29 29 30&#10;33 13 36 -11 2 -23 -3 -28 -13 -15 -26 -57 -38 -89 -25 -22 9 -49 46 -49 65 0&#10;3 41 5 90 5 l90 0 0 31 c0 46 -47 89 -97 89 -21 -1 -49 -7 -62 -14z m112 -38&#10;c33 -39 23 -48 -58 -48 -41 0 -75 2 -75 5 0 2 5 15 11 29 22 48 86 56 122 14z"/>
<path d="M5270 1650 c0 -86 3 -110 14 -110 9 0 15 21 19 76 6 83 15 100 58&#10;109 16 4 29 13 29 21 0 18 -31 18 -56 -1 -25 -19 -38 -19 -30 0 4 10 -1 15&#10;-14 15 -19 0 -20 -7 -20 -110z"/>
<path d="M5480 1600 c0 -136 2 -160 15 -160 12 0 15 15 15 75 l0 74 25 -24&#10;c28 -29 88 -34 122 -10 49 34 53 136 8 181 -34 34 -97 33 -130 -1 l-25 -24 0&#10;24 c0 16 -6 25 -15 25 -13 0 -15 -24 -15 -160z m158 114 c30 -21 31 -95 2&#10;-124 -30 -30 -83 -27 -109 6 -42 54 -11 134 53 134 17 0 42 -7 54 -16z"/>
<path d="M5800 1650 c0 -91 3 -110 15 -110 12 0 15 15 15 74 0 69 2 76 26 95&#10;15 12 33 21 40 21 8 0 14 7 14 15 0 22 -30 18 -57 -7 l-23 -21 0 21 c0 13 -6&#10;22 -15 22 -12 0 -15 -19 -15 -110z"/>
<path d="M6000 1650 c0 -103 1 -110 20 -110 19 0 20 7 20 110 0 103 -1 110&#10;-20 110 -19 0 -20 -7 -20 -110z"/>
<path d="M6157 1742 c-18 -20 -22 -49 -9 -70 5 -7 33 -20 63 -30 56 -18 72&#10;-40 49 -67 -19 -23 -56 -18 -78 10 -22 28 -42 33 -42 11 0 -25 50 -56 90 -56&#10;43 0 70 24 70 62 0 29 -13 42 -50 52 -56 16 -80 29 -80 45 0 45 58 55 88 16&#10;20 -26 42 -33 42 -15 0 6 -11 22 -25 35 -30 31 -93 34 -118 7z"/>
<path d="M6428 1731 c-30 -26 -33 -35 -32 -82 0 -45 5 -56 32 -81 35 -31 86&#10;-37 125 -16 23 12 46 37 47 51 0 15 -33 6 -49 -15 -33 -41 -121 -16 -121 34 0&#10;16 9 18 85 18 l85 0 0 33 c-1 83 -105 118 -172 58z m116 -12 c14 -11 26 -29&#10;26 -40 0 -17 -8 -19 -70 -19 -62 0 -70 2 -70 19 0 22 44 61 70 61 10 0 29 -9&#10;44 -21z"/>
</g>
</svg>